<svg class="oc-achievement-art" xmlns="http://www.w3.org/2000/svg" viewBox="0 0 256 256" width="256" height="256"><style>.oc-achievement-art .plate{fill:var(--oc-art-panel,#26313f);stroke:var(--oc-art-accent,#f6be48);stroke-width:5}.oc-achievement-art .inset{fill:var(--oc-art-ground,#1c2531);stroke:var(--oc-art-outline,#c89542);stroke-width:2}.oc-achievement-art .line{fill:none;stroke:var(--oc-art-accent,#f6be48);stroke-width:4;stroke-linecap:round;stroke-linejoin:round}.oc-achievement-art .mascot{color:var(--oc-art-mascot,#f6be48)}.oc-achievement-art .oc-icon-body{fill:var(--oc-art-accent,#f6be48);stroke:var(--oc-art-ground,#1c2531);stroke-width:1}.oc-achievement-art .oc-icon-detail{stroke:var(--oc-art-ground,#1c2531);stroke-width:1.5}.oc-achievement-art .oc-icon-ink{stroke:var(--oc-art-accent,#f6be48);stroke-width:2}.oc-achievement-art .oc-icon-dot{fill:var(--oc-art-ground,#1c2531)}.oc-achievement-art .oc-icon-ink-dot{fill:var(--oc-art-accent,#f6be48)}.oc-achievement-art .oc-icon-highlight{stroke:#fff;stroke-width:1;opacity:.55}.oc-achievement-art .oc-icon-shade{fill:#000;opacity:.16}</style><g id="background"><path d="m66 184-13 57 31-12 21 18 14-44m28 0 14 44 21-18 31 12-13-57" fill="var(--oc-art-accent,#f6be48)" stroke="var(--oc-art-ground,#1c2531)" stroke-width="4"/><rect class="plate" x="27" y="18" width="202" height="202" rx="48"/><circle class="inset" cx="128" cy="119" r="82"/><path class="line" opacity=".65" transform="rotate(0.0 128 119)" d="M128 26v9"/><path class="line" opacity=".65" transform="rotate(90.0 128 119)" d="M128 26v9"/><path class="line" opacity=".65" transform="rotate(180.0 128 119)" d="M128 26v9"/><path class="line" opacity=".65" transform="rotate(270.0 128 119)" d="M128 26v9"/></g><g id="mascot" class="mascot" transform="translate(61 43) scale(1.22)"><g fill="none" stroke="currentColor" stroke-width="6" stroke-linejoin="round"><path d="M50 10 91 82H9Z" /><path d="M25 55Q50 23 75 55Q50 87 25 55Z" /></g><circle cx="50" cy="55" r="13" fill="currentColor" /><circle cx="54" cy="50" r="4" fill="#fff" /></g><g id="foreground"><path class="line" d="M81 184h59"/><circle cx="184" cy="174" r="34" class="inset"/><g transform="translate(160 150) scale(2)" fill="none" stroke="var(--oc-art-accent,#f6be48)" stroke-linecap="round" stroke-linejoin="round"><path class="oc-icon-ink" d="m9 8 6-6a4 4 0 0 1 6 6L10 19a5 5 0 0 1-7-7L14 2m-8 14 10-10" fill="none"/></g></g></svg>
